<?xml version="1.0" encoding="UTF-8" standalone="no"?><!DOCTYPE svg PUBLIC "-//W3C//DTD SVG 1.1//EN" "http://www.w3.org/Graphics/SVG/1.1/DTD/svg11.dtd"><svg width="100%" height="100%" viewBox="0 0 154 38" version="1.1" xmlns="http://www.w3.org/2000/svg" xmlns:xlink="http://www.w3.org/1999/xlink" xml:space="preserve" style="fill-rule:evenodd;clip-rule:evenodd;stroke-linejoin:round;stroke-miterlimit:1.41421;"><path d="M95.817,0l-95.817,0l0,37.5l71.114,0l24.703,-37.5Z" style="fill:url(#_Linear1);"/><circle cx="37.636" cy="18.75" r="16.157" style="fill:#000;"/><path d="M35.638,8.452c0.037,0.004 0.052,0.004 0.088,0.011c0.033,0.006 0.06,0.013 0.092,0.023c0.044,0.014 0.085,0.032 0.127,0.051c0.055,0.025 0.11,0.051 0.164,0.079c0.26,0.133 0.503,0.297 0.722,0.489c0.146,0.127 0.281,0.266 0.404,0.415c0.093,0.113 0.18,0.232 0.26,0.355c0.056,0.088 0.11,0.178 0.16,0.27c0.344,0.634 0.52,1.347 0.601,2.06c0.013,0.122 0.025,0.243 0.033,0.365c0.011,0.145 0.017,0.291 0.022,0.436c0.029,-0.027 0.059,-0.053 0.089,-0.08c0.098,-0.086 0.197,-0.17 0.299,-0.251c0.092,-0.073 0.186,-0.145 0.281,-0.214c0.073,-0.052 0.147,-0.103 0.222,-0.153c0.55,-0.363 1.165,-0.645 1.821,-0.744c0.211,-0.031 0.424,-0.044 0.637,-0.036c0.042,0.002 0.084,0.005 0.126,0.008c0.038,0.003 0.077,0.006 0.115,0.013c0.063,0.01 0.125,0.026 0.184,0.048c0.067,0.025 0.13,0.056 0.19,0.093c0.04,0.025 0.079,0.053 0.115,0.083c0.257,0.209 0.41,0.519 0.491,0.834c0.011,0.046 0.022,0.093 0.031,0.14c0.012,0.064 0.022,0.129 0.029,0.194c0.028,0.249 0.022,0.502 -0.013,0.75c-0.072,0.514 -0.268,1.008 -0.563,1.434c-0.232,0.335 -0.523,0.625 -0.854,0.861c-0.314,0.223 -0.66,0.397 -1.022,0.526c-0.312,0.111 -0.635,0.19 -0.963,0.242c-0.18,0.028 -0.361,0.049 -0.543,0.063c-0.142,0.01 -0.283,0.015 -0.425,0.024c-0.071,0.004 -0.142,0.009 -0.212,0.015c-0.259,0.021 -0.516,0.048 -0.773,0.085c-0.191,0.027 -0.382,0.06 -0.572,0.097c-0.157,0.031 -0.313,0.066 -0.468,0.104c-0.919,0.228 -1.812,0.594 -2.585,1.146c-0.104,0.074 -0.205,0.151 -0.304,0.232c-0.149,0.122 -0.292,0.252 -0.428,0.388c-0.182,0.184 -0.351,0.38 -0.504,0.588c-0.188,0.256 -0.352,0.53 -0.487,0.817c-0.17,0.359 -0.295,0.739 -0.372,1.128c-0.099,0.501 -0.118,1.016 -0.059,1.522c0.073,0.628 0.266,1.241 0.564,1.799c0.212,0.396 0.476,0.764 0.785,1.09c0.202,0.214 0.424,0.408 0.66,0.582c0.261,0.194 0.54,0.364 0.829,0.512c1.05,0.534 2.241,0.768 3.415,0.731c0.761,-0.025 1.517,-0.162 2.242,-0.394c0.17,-0.054 0.339,-0.114 0.505,-0.178c0.122,-0.048 0.243,-0.097 0.361,-0.153c0.163,-0.078 0.321,-0.169 0.472,-0.269c0.338,-0.225 0.642,-0.501 0.903,-0.813c0.251,-0.301 0.463,-0.636 0.626,-0.992c0.18,-0.395 0.301,-0.818 0.341,-1.251c0.03,-0.326 0.013,-0.658 -0.063,-0.978c-0.043,-0.177 -0.103,-0.349 -0.181,-0.514c-0.079,-0.167 -0.177,-0.326 -0.292,-0.472c-0.163,-0.21 -0.358,-0.393 -0.572,-0.549c-0.093,-0.068 -0.189,-0.13 -0.287,-0.188c-0.046,-0.026 -0.093,-0.053 -0.141,-0.076c-0.031,-0.016 -0.063,-0.03 -0.096,-0.042c-0.129,-0.051 -0.267,-0.079 -0.405,-0.091c-0.13,-0.012 -0.261,-0.009 -0.391,0.005c-0.171,0.018 -0.339,0.054 -0.504,0.104c-0.198,0.06 -0.391,0.139 -0.576,0.233c-0.222,0.113 -0.434,0.248 -0.633,0.401c-0.07,0.054 -0.139,0.111 -0.206,0.17l-0.057,0.044c-0.053,0.033 -0.066,0.044 -0.125,0.069c-0.132,0.057 -0.281,0.07 -0.421,0.037c-0.07,-0.016 -0.137,-0.043 -0.199,-0.079c-0.061,-0.037 -0.117,-0.084 -0.164,-0.138c-0.094,-0.108 -0.153,-0.246 -0.166,-0.389c-0.006,-0.072 -0.001,-0.144 0.015,-0.214c0.016,-0.07 0.043,-0.137 0.08,-0.199c0.025,-0.041 0.053,-0.079 0.086,-0.114c0.034,-0.036 0.072,-0.068 0.11,-0.1c0.049,-0.042 0.1,-0.084 0.151,-0.124c0.283,-0.224 0.587,-0.421 0.909,-0.584c0.41,-0.209 0.849,-0.365 1.304,-0.444c0.334,-0.057 0.678,-0.073 1.015,-0.031c0.254,0.032 0.505,0.095 0.741,0.195c0.11,0.046 0.216,0.101 0.321,0.16c0.098,0.057 0.195,0.116 0.289,0.179c0.306,0.204 0.588,0.445 0.833,0.72c0.268,0.3 0.489,0.64 0.654,1.007c0.107,0.24 0.191,0.49 0.249,0.747c0.036,0.16 0.063,0.322 0.08,0.485c0.014,0.121 0.021,0.244 0.024,0.366c0.02,0.862 -0.208,1.722 -0.605,2.484c-0.07,0.136 -0.146,0.268 -0.227,0.397c-0.103,0.166 -0.215,0.326 -0.335,0.48c-0.155,0.2 -0.323,0.39 -0.503,0.567c-0.242,0.24 -0.506,0.457 -0.788,0.648c-0.227,0.154 -0.465,0.29 -0.713,0.406c-0.138,0.064 -0.278,0.122 -0.42,0.177c-0.148,0.057 -0.297,0.111 -0.448,0.161c-0.738,0.248 -1.506,0.411 -2.282,0.475c-0.35,0.029 -0.701,0.039 -1.051,0.027c-0.272,-0.009 -0.542,-0.03 -0.812,-0.065c-0.235,-0.029 -0.469,-0.069 -0.702,-0.118c-0.769,-0.163 -1.516,-0.434 -2.205,-0.814c-0.487,-0.269 -0.945,-0.593 -1.353,-0.971c-0.218,-0.202 -0.42,-0.419 -0.607,-0.65c-0.306,-0.377 -0.569,-0.789 -0.783,-1.225c-0.252,-0.516 -0.435,-1.065 -0.542,-1.628c-0.128,-0.677 -0.146,-1.373 -0.051,-2.055c0.057,-0.404 0.153,-0.802 0.287,-1.188c0.125,-0.356 0.282,-0.701 0.469,-1.029c0.214,-0.376 0.468,-0.73 0.753,-1.055c0.309,-0.352 0.654,-0.671 1.027,-0.953c0.382,-0.289 0.791,-0.54 1.219,-0.754c0.684,-0.343 1.413,-0.593 2.158,-0.765c0.54,-0.126 1.09,-0.211 1.642,-0.264c0.155,-0.015 0.311,-0.027 0.466,-0.037c0.108,-0.006 0.216,-0.011 0.323,-0.017c0.042,-0.003 0.084,-0.006 0.126,-0.009c0.105,-0.009 0.21,-0.02 0.315,-0.035c0.085,-0.012 0.17,-0.027 0.254,-0.044c0.486,-0.097 0.967,-0.279 1.353,-0.597c0.051,-0.042 0.1,-0.086 0.147,-0.132c0.073,-0.072 0.141,-0.149 0.203,-0.231c0.079,-0.106 0.149,-0.22 0.206,-0.34c0.067,-0.141 0.118,-0.289 0.15,-0.442c0.031,-0.146 0.045,-0.296 0.038,-0.445c-0.005,-0.096 -0.018,-0.192 -0.048,-0.284l-0.001,-0.003c-0.419,-0.002 -0.827,0.135 -1.195,0.326c-0.06,0.032 -0.12,0.065 -0.179,0.1c-0.287,0.168 -0.554,0.368 -0.805,0.585c-0.293,0.252 -0.564,0.529 -0.818,0.82c-0.065,0.075 -0.129,0.151 -0.192,0.228c-0.027,0.034 -0.055,0.069 -0.083,0.103c-0.016,0.019 -0.016,0.019 -0.031,0.036c-0.019,0.021 -0.038,0.041 -0.059,0.06c-0.061,0.057 -0.131,0.106 -0.207,0.141c-0.018,0.008 -0.037,0.015 -0.055,0.022c-0.026,0.01 -0.081,0.023 -0.099,0.028l-0.004,0.001c-0.037,0.007 -0.037,0.007 -0.075,0.012l-0.003,0c-0.042,0.003 -0.042,0.003 -0.084,0.003l-0.003,0c-0.045,-0.003 -0.045,-0.003 -0.089,-0.008l-0.004,-0.001c-0.045,-0.008 -0.045,-0.008 -0.09,-0.02l-0.003,-0.001c-0.042,-0.014 -0.042,-0.014 -0.082,-0.03l-0.003,-0.002c-0.04,-0.019 -0.04,-0.019 -0.079,-0.041l-0.003,-0.002c-0.033,-0.022 -0.033,-0.022 -0.065,-0.045l-0.003,-0.003c-0.029,-0.024 -0.029,-0.024 -0.057,-0.049l-0.003,-0.003c-0.012,-0.013 -0.049,-0.052 -0.064,-0.072c-0.025,-0.033 -0.041,-0.056 -0.061,-0.091c-0.014,-0.026 -0.026,-0.051 -0.038,-0.078c-0.076,-0.177 -0.08,-0.375 -0.079,-0.565c0.001,-0.047 0.002,-0.096 0.003,-0.143c0.005,-0.168 0.01,-0.336 0.015,-0.504c0.004,-0.218 0.006,-0.435 0,-0.653c-0.005,-0.165 -0.013,-0.329 -0.027,-0.493c-0.012,-0.132 -0.026,-0.263 -0.045,-0.393c-0.015,-0.103 -0.033,-0.206 -0.053,-0.308c-0.015,-0.074 -0.031,-0.147 -0.05,-0.22c-0.11,-0.438 -0.285,-0.869 -0.571,-1.223c-0.043,-0.053 -0.088,-0.103 -0.135,-0.152c-0.091,-0.094 -0.19,-0.178 -0.295,-0.254l-0.008,-0.006c-0.063,0.155 -0.112,0.314 -0.153,0.475c-0.054,0.211 -0.094,0.426 -0.123,0.641c-0.022,0.171 -0.037,0.342 -0.044,0.514c-0.005,0.124 -0.006,0.249 -0.002,0.374c0.003,0.099 0.008,0.199 0.017,0.298c0.054,0.625 0.226,1.25 0.575,1.777c0.086,0.128 0.181,0.249 0.285,0.363l0.045,0.055c0.035,0.053 0.046,0.066 0.072,0.124c0.04,0.087 0.061,0.182 0.061,0.278c0,0.072 -0.01,0.143 -0.032,0.212c-0.022,0.068 -0.055,0.133 -0.097,0.191c-0.083,0.117 -0.204,0.206 -0.341,0.251c-0.068,0.022 -0.139,0.034 -0.211,0.034c-0.144,0.001 -0.286,-0.044 -0.403,-0.128c-0.02,-0.014 -0.038,-0.029 -0.056,-0.045c-0.037,-0.033 -0.07,-0.071 -0.103,-0.108c-0.061,-0.07 -0.121,-0.142 -0.178,-0.216c-0.111,-0.144 -0.214,-0.295 -0.306,-0.452c-0.065,-0.109 -0.124,-0.222 -0.18,-0.336c-0.343,-0.713 -0.5,-1.505 -0.518,-2.293c-0.003,-0.134 -0.002,-0.268 0.003,-0.402c0.007,-0.182 0.02,-0.364 0.04,-0.545c0.036,-0.312 0.091,-0.623 0.17,-0.927c0.031,-0.12 0.065,-0.239 0.103,-0.356c0.031,-0.094 0.064,-0.186 0.101,-0.277c0.028,-0.072 0.059,-0.143 0.091,-0.212c0.023,-0.046 0.046,-0.092 0.07,-0.138c0.119,-0.221 0.273,-0.436 0.49,-0.571c0.027,-0.016 0.054,-0.031 0.082,-0.045c0.043,-0.021 0.086,-0.038 0.131,-0.051c0.052,-0.016 0.104,-0.026 0.158,-0.031c0.037,-0.004 0.049,-0.003 0.086,-0.004c0.016,0.001 0.031,0.001 0.047,0.002l0,0Z" style="fill:#fff;fill-rule:nonzero;"/><defs><linearGradient id="_Linear1" x1="0" y1="0" x2="1" y2="0" gradientUnits="userSpaceOnUse" gradientTransform="matrix(95.8172,3.54159e-14,-1.10614e-14,153.34,1.42109e-13,18.75)"><stop offset="0%" style="stop-color:#4da440;stop-opacity:1"/><stop offset="100%" style="stop-color:#addda0;stop-opacity:1"/></linearGradient></defs></svg>