<?xml version="1.0" encoding="UTF-8" standalone="no"?><!DOCTYPE svg PUBLIC "-//W3C//DTD SVG 1.1//EN" "http://www.w3.org/Graphics/SVG/1.1/DTD/svg11.dtd"><svg width="100%" height="100%" viewBox="0 0 85 121" version="1.1" xmlns="http://www.w3.org/2000/svg" xmlns:xlink="http://www.w3.org/1999/xlink" xml:space="preserve" style="fill-rule:evenodd;clip-rule:evenodd;stroke-linejoin:round;stroke-miterlimit:1.41421;"><path d="M30.65,0.011c0.216,0.022 0.303,0.026 0.518,0.066c0.189,0.035 0.351,0.075 0.534,0.132c0.256,0.08 0.497,0.186 0.742,0.297c0.324,0.147 0.645,0.302 0.962,0.465c1.514,0.778 2.936,1.735 4.218,2.856c0.849,0.742 1.638,1.554 2.356,2.424c0.547,0.661 1.054,1.355 1.52,2.075c0.331,0.512 0.643,1.038 0.934,1.575c2.011,3.706 3.039,7.87 3.512,12.038c0.08,0.709 0.145,1.421 0.196,2.133c0.06,0.848 0.098,1.698 0.124,2.548c0.174,-0.158 0.349,-0.314 0.525,-0.47c0.57,-0.5 1.149,-0.99 1.742,-1.464c0.539,-0.43 1.087,-0.847 1.646,-1.25c0.425,-0.307 0.857,-0.605 1.295,-0.895c3.212,-2.122 6.808,-3.768 10.638,-4.346c1.232,-0.186 2.48,-0.26 3.725,-0.21c0.245,0.01 0.49,0.025 0.734,0.044c0.225,0.018 0.45,0.038 0.674,0.074c0.367,0.06 0.728,0.156 1.076,0.284c0.388,0.143 0.759,0.326 1.109,0.544c0.235,0.146 0.459,0.308 0.673,0.483c1.496,1.222 2.391,3.03 2.864,4.872c0.069,0.271 0.13,0.544 0.183,0.819c0.072,0.375 0.128,0.752 0.171,1.131c0.165,1.456 0.128,2.934 -0.076,4.385c-0.421,3 -1.566,5.89 -3.291,8.379c-1.353,1.953 -3.058,3.65 -4.992,5.028c-1.829,1.303 -3.854,2.319 -5.967,3.073c-1.824,0.65 -3.713,1.108 -5.625,1.413c-1.053,0.167 -2.113,0.287 -3.176,0.367c-0.826,0.062 -1.654,0.093 -2.481,0.143c-0.414,0.026 -0.828,0.055 -1.241,0.087c-1.51,0.121 -3.016,0.283 -4.516,0.498c-1.117,0.159 -2.231,0.348 -3.339,0.567c-0.917,0.181 -1.83,0.383 -2.738,0.608c-5.367,1.331 -10.586,3.467 -15.101,6.693c-0.606,0.433 -1.199,0.885 -1.775,1.357c-0.873,0.713 -1.709,1.469 -2.503,2.268c-1.064,1.071 -2.051,2.219 -2.945,3.436c-1.098,1.495 -2.054,3.093 -2.846,4.77c-0.99,2.098 -1.721,4.318 -2.17,6.594c-0.577,2.923 -0.689,5.933 -0.345,8.891c0.426,3.67 1.554,7.252 3.296,10.509c1.236,2.312 2.78,4.467 4.584,6.371c1.18,1.246 2.478,2.379 3.856,3.401c1.526,1.131 3.153,2.126 4.847,2.988c6.133,3.123 13.09,4.489 19.949,4.27c4.447,-0.142 8.863,-0.943 13.098,-2.3c0.994,-0.318 1.979,-0.666 2.952,-1.043c0.713,-0.276 1.421,-0.563 2.11,-0.893c0.954,-0.457 1.874,-0.984 2.754,-1.569c1.978,-1.316 3.754,-2.929 5.277,-4.751c1.469,-1.759 2.706,-3.713 3.659,-5.797c1.052,-2.304 1.761,-4.779 1.992,-7.305c0.175,-1.909 0.074,-3.849 -0.371,-5.717c-0.246,-1.033 -0.597,-2.041 -1.052,-3c-0.465,-0.98 -1.039,-1.908 -1.706,-2.763c-0.954,-1.224 -2.093,-2.294 -3.346,-3.206c-0.54,-0.394 -1.101,-0.758 -1.678,-1.095c-0.269,-0.157 -0.539,-0.312 -0.819,-0.449c-0.183,-0.09 -0.371,-0.172 -0.561,-0.245c-0.757,-0.294 -1.56,-0.46 -2.368,-0.531c-0.759,-0.067 -1.525,-0.049 -2.282,0.03c-0.999,0.105 -1.984,0.318 -2.945,0.607c-1.16,0.349 -2.285,0.814 -3.365,1.363c-1.302,0.662 -2.54,1.451 -3.698,2.341c-0.413,0.318 -0.814,0.65 -1.207,0.992l-0.33,0.258c-0.314,0.197 -0.387,0.26 -0.731,0.406c-0.773,0.33 -1.643,0.407 -2.462,0.218c-0.408,-0.094 -0.801,-0.252 -1.161,-0.467c-0.359,-0.216 -0.684,-0.488 -0.959,-0.804c-0.552,-0.633 -0.894,-1.437 -0.969,-2.274c-0.036,-0.418 -0.007,-0.841 0.087,-1.249c0.093,-0.408 0.252,-0.801 0.467,-1.161c0.144,-0.24 0.312,-0.464 0.503,-0.668c0.196,-0.211 0.42,-0.397 0.64,-0.584c0.29,-0.247 0.585,-0.489 0.884,-0.726c1.651,-1.309 3.431,-2.457 5.309,-3.413c2.397,-1.219 4.965,-2.129 7.618,-2.589c1.956,-0.338 3.962,-0.427 5.935,-0.183c1.484,0.184 2.946,0.556 4.325,1.136c0.646,0.271 1.267,0.593 1.875,0.94c0.575,0.329 1.139,0.677 1.69,1.044c1.789,1.194 3.438,2.599 4.869,4.205c1.562,1.753 2.857,3.74 3.818,5.883c0.629,1.401 1.115,2.866 1.456,4.364c0.212,0.934 0.369,1.881 0.471,2.834c0.076,0.711 0.121,1.426 0.138,2.141c0.116,5.038 -1.216,10.058 -3.534,14.514c-0.411,0.79 -0.854,1.564 -1.326,2.32c-0.605,0.967 -1.259,1.903 -1.958,2.804c-0.906,1.167 -1.887,2.275 -2.938,3.313c-1.417,1.398 -2.959,2.67 -4.608,3.785c-1.324,0.896 -2.717,1.691 -4.165,2.371c-0.803,0.376 -1.624,0.711 -2.451,1.031c-0.865,0.335 -1.738,0.65 -2.617,0.945c-4.315,1.446 -8.799,2.401 -13.336,2.776c-2.042,0.169 -4.093,0.223 -6.141,0.155c-1.584,-0.053 -3.166,-0.177 -4.739,-0.377c-1.376,-0.174 -2.745,-0.404 -4.102,-0.692c-4.493,-0.953 -8.861,-2.534 -12.884,-4.757c-2.846,-1.572 -5.52,-3.464 -7.907,-5.674c-1.272,-1.178 -2.455,-2.448 -3.547,-3.794c-1.786,-2.205 -3.323,-4.611 -4.571,-7.16c-1.474,-3.011 -2.543,-6.219 -3.168,-9.513c-0.75,-3.952 -0.856,-8.022 -0.298,-12.006c0.33,-2.359 0.893,-4.686 1.679,-6.936c0.727,-2.083 1.646,-4.099 2.738,-6.016c1.252,-2.198 2.732,-4.264 4.4,-6.165c1.802,-2.055 3.822,-3.915 6,-5.564c2.228,-1.687 4.621,-3.154 7.119,-4.407c3.998,-2.004 8.256,-3.462 12.608,-4.472c3.159,-0.733 6.369,-1.232 9.597,-1.54c0.905,-0.086 1.813,-0.157 2.721,-0.214c0.63,-0.039 1.26,-0.066 1.889,-0.102c0.245,-0.016 0.488,-0.033 0.732,-0.053c0.616,-0.052 1.231,-0.118 1.843,-0.206c0.497,-0.07 0.992,-0.155 1.484,-0.253c2.841,-0.568 5.65,-1.631 7.907,-3.488c0.297,-0.244 0.583,-0.501 0.857,-0.771c0.427,-0.42 0.823,-0.872 1.183,-1.351c0.466,-0.62 0.871,-1.286 1.206,-1.986c0.393,-0.822 0.689,-1.691 0.877,-2.583c0.18,-0.852 0.263,-1.727 0.22,-2.598c-0.027,-0.561 -0.106,-1.125 -0.279,-1.662l-0.006,-0.016c-2.445,-0.015 -4.83,0.788 -6.979,1.906c-0.355,0.185 -0.705,0.38 -1.051,0.583c-1.673,0.982 -3.234,2.15 -4.702,3.417c-1.708,1.475 -3.294,3.089 -4.775,4.79c-0.381,0.438 -0.755,0.881 -1.122,1.331c-0.163,0.201 -0.325,0.404 -0.488,0.605c-0.09,0.107 -0.09,0.107 -0.182,0.212c-0.111,0.119 -0.223,0.237 -0.342,0.348c-0.359,0.333 -0.766,0.618 -1.212,0.822c-0.105,0.049 -0.212,0.091 -0.321,0.133c-0.151,0.057 -0.47,0.134 -0.578,0.163l-0.023,0.005c-0.217,0.039 -0.217,0.039 -0.436,0.067l-0.022,0.002c-0.243,0.016 -0.243,0.016 -0.487,0.017l-0.02,0c-0.262,-0.016 -0.262,-0.016 -0.521,-0.048l-0.02,-0.003c-0.266,-0.051 -0.265,-0.051 -0.526,-0.119l-0.019,-0.006c-0.242,-0.081 -0.242,-0.081 -0.478,-0.177l-0.018,-0.008c-0.235,-0.114 -0.235,-0.113 -0.461,-0.242l-0.018,-0.011c-0.195,-0.127 -0.195,-0.127 -0.382,-0.265l-0.017,-0.013c-0.169,-0.14 -0.169,-0.14 -0.33,-0.29l-0.017,-0.016c-0.073,-0.078 -0.288,-0.301 -0.378,-0.419c-0.145,-0.192 -0.236,-0.328 -0.353,-0.534c-0.085,-0.15 -0.155,-0.296 -0.223,-0.454c-0.443,-1.037 -0.469,-2.189 -0.46,-3.299c0.002,-0.28 0.009,-0.561 0.015,-0.841c0.027,-0.981 0.061,-1.962 0.086,-2.944c0.028,-1.27 0.037,-2.541 0.002,-3.811c-0.027,-0.963 -0.077,-1.924 -0.159,-2.883c-0.066,-0.768 -0.152,-1.534 -0.262,-2.297c-0.087,-0.602 -0.19,-1.201 -0.31,-1.797c-0.087,-0.431 -0.183,-0.859 -0.29,-1.286c-0.642,-2.56 -1.668,-5.077 -3.34,-7.145c-0.25,-0.308 -0.512,-0.605 -0.788,-0.89c-0.529,-0.545 -1.106,-1.036 -1.72,-1.481l-0.049,-0.035c-0.365,0.901 -0.652,1.835 -0.894,2.776c-0.316,1.232 -0.551,2.484 -0.716,3.745c-0.13,0.995 -0.216,1.996 -0.256,2.999c-0.03,0.728 -0.035,1.458 -0.015,2.187c0.017,0.58 0.049,1.161 0.099,1.74c0.314,3.65 1.323,7.304 3.362,10.38c0.498,0.751 1.056,1.457 1.662,2.123l0.265,0.324c0.204,0.31 0.269,0.382 0.422,0.722c0.23,0.509 0.352,1.066 0.355,1.625c0.002,0.419 -0.062,0.838 -0.19,1.237c-0.127,0.399 -0.317,0.778 -0.562,1.118c-0.49,0.682 -1.194,1.2 -1.992,1.464c-0.398,0.131 -0.816,0.2 -1.235,0.202c-0.84,0.004 -1.673,-0.261 -2.355,-0.751c-0.114,-0.082 -0.223,-0.169 -0.327,-0.262c-0.217,-0.193 -0.409,-0.414 -0.601,-0.631c-0.36,-0.408 -0.708,-0.828 -1.041,-1.259c-0.651,-0.842 -1.248,-1.725 -1.788,-2.642c-0.377,-0.64 -0.727,-1.296 -1.049,-1.965c-2.006,-4.165 -2.921,-8.795 -3.027,-13.399c-0.017,-0.781 -0.012,-1.562 0.016,-2.343c0.038,-1.064 0.117,-2.127 0.236,-3.185c0.207,-1.826 0.532,-3.64 0.989,-5.42c0.18,-0.699 0.38,-1.393 0.605,-2.079c0.179,-0.546 0.373,-1.087 0.587,-1.62c0.166,-0.417 0.344,-0.83 0.536,-1.235c0.129,-0.272 0.264,-0.541 0.407,-0.805c0.697,-1.294 1.595,-2.551 2.863,-3.336c0.156,-0.096 0.316,-0.185 0.48,-0.265c0.247,-0.12 0.503,-0.221 0.766,-0.3c0.299,-0.089 0.608,-0.151 0.919,-0.18c0.217,-0.021 0.285,-0.018 0.505,-0.022c0.091,0.004 0.181,0.008 0.272,0.011Z" style="fill:#184917;fill-rule:nonzero;"/></svg>